<svg width="54" height="54" viewBox="0 0 54 54" fill="none" xmlns="http://www.w3.org/2000/svg">
<path d="M8 53.3333C6.53333 53.3333 5.27822 52.8116 4.23467 51.768C3.19111 50.7244 2.66844 49.4684 2.66667 48V17.9333C1.86667 17.4444 1.22222 16.8116 0.733334 16.0347C0.244445 15.2578 0 14.3573 0 13.3333V5.33333C0 3.86667 0.522667 2.61156 1.568 1.568C2.61333 0.524445 3.86844 0.00177778 5.33333 0H48C49.4667 0 50.7227 0.522667 51.768 1.568C52.8133 2.61333 53.3351 3.86844 53.3333 5.33333V13.3333C53.3333 14.3556 53.0889 15.256 52.6 16.0347C52.1111 16.8133 51.4667 17.4453 50.6667 17.9307V48C50.6667 49.4667 50.1449 50.7227 49.1013 51.768C48.0578 52.8133 46.8018 53.3351 45.3333 53.3333H8ZM5.33333 13.3333H48V5.33333H5.33333V13.3333ZM18.6667 32H34.6667V26.6667H18.6667V32Z" fill="#F7F9FA"/>
</svg>
