<svg width="54" height="54" viewBox="0 0 64 64" fill="none" xmlns="http://www.w3.org/2000/svg">
<path d="M32 49.3334C33.1111 49.3334 34.056 48.9449 34.8347 48.168C35.6133 47.3912 36.0018 46.4463 36 45.3334H28C28 46.4445 28.3893 47.3894 29.168 48.168C29.9467 48.9467 30.8907 49.3352 32 49.3334ZM32 58.6667C28.3111 58.6667 24.8445 57.9663 21.6 56.5654C18.3556 55.1645 15.5333 53.2649 13.1333 50.8667C10.7333 48.4685 8.83379 45.6463 7.43468 42.4C6.03557 39.1538 5.33512 35.6872 5.33335 32C5.33157 28.3129 6.03201 24.8463 7.43468 21.6C8.83735 18.3538 10.7369 15.5316 13.1333 13.1334C15.5298 10.7352 18.352 8.8356 21.6 7.43471C24.848 6.03382 28.3147 5.33337 32 5.33337C35.6853 5.33337 39.152 6.03382 42.4 7.43471C45.648 8.8356 48.4702 10.7352 50.8667 13.1334C53.2631 15.5316 55.1636 18.3538 56.568 21.6C57.9725 24.8463 58.672 28.3129 58.6667 32C58.6614 35.6872 57.9609 39.1538 56.5653 42.4C55.1698 45.6463 53.2702 48.4685 50.8667 50.8667C48.4631 53.2649 45.6409 55.1654 42.4 56.568C39.1591 57.9707 35.6925 58.6703 32 58.6667ZM21.3333 42.6667H42.6667C43.4222 42.6667 44.056 42.4107 44.568 41.8987C45.08 41.3867 45.3351 40.7538 45.3333 40C45.3316 39.2463 45.0756 38.6134 44.5653 38.1014C44.0551 37.5894 43.4222 37.3334 42.6667 37.3334V30.4C42.6667 27.6889 41.9662 25.2116 40.5653 22.968C39.1645 20.7245 37.1982 19.2907 34.6667 18.6667V17.3334C34.6667 16.5778 34.4107 15.9449 33.8987 15.4347C33.3867 14.9245 32.7538 14.6685 32 14.6667C31.2462 14.6649 30.6133 14.9209 30.1013 15.4347C29.5893 15.9485 29.3333 16.5814 29.3333 17.3334V18.6667C26.8 19.2889 24.8338 20.7227 23.4347 22.968C22.0356 25.2134 21.3351 27.6907 21.3333 30.4V37.3334C20.5778 37.3334 19.9449 37.5894 19.4347 38.1014C18.9245 38.6134 18.6685 39.2463 18.6667 40C18.6649 40.7538 18.9209 41.3876 19.4347 41.9014C19.9485 42.4152 20.5813 42.6703 21.3333 42.6667Z" fill="#F7F9FA"/>
</svg>
